<?xml version="1.0" encoding="UTF-8" standalone="no"?>
<!DOCTYPE svg PUBLIC "-//W3C//DTD SVG 1.1//EN"
 "http://www.w3.org/Graphics/SVG/1.1/DTD/svg11.dtd">
<!-- Generated by graphviz version 10.0.1 (20240210.2158)
 -->
<!-- Title: pastafarianism Pages: 1 -->
<svg width="134pt" height="116pt"
 viewBox="0.00 0.00 134.25 116.00" xmlns="http://www.w3.org/2000/svg" xmlns:xlink="http://www.w3.org/1999/xlink">
<g id="graph0" class="graph" transform="scale(1 1) rotate(0) translate(4 112)">
<title>pastafarianism</title>
<polygon fill="white" stroke="none" points="-4,4 -4,-112 130.25,-112 130.25,4 -4,4"/>
<!-- Parallel -->
<g id="node1" class="node">
<title>Parallel</title>
<ellipse fill="gray" stroke="black" cx="63" cy="-90" rx="27" ry="18"/>
<text text-anchor="middle" x="63" y="-86.7" font-family="Times,serif" font-size="9.00">Parallel</text>
</g>
<!-- RefFile -->
<g id="node2" class="node">
<title>RefFile</title>
<ellipse fill="gray" stroke="black" cx="27" cy="-18" rx="27" ry="18"/>
<text text-anchor="middle" x="27" y="-14.7" font-family="Times,serif" font-size="9.00">RefFile</text>
</g>
<!-- Parallel&#45;&gt;RefFile -->
<g id="edge1" class="edge">
<title>Parallel&#45;&gt;RefFile</title>
<path fill="none" stroke="black" d="M54.65,-72.76C50.42,-64.55 45.19,-54.37 40.42,-45.09"/>
<polygon fill="black" stroke="black" points="43.68,-43.79 36,-36.49 37.46,-46.99 43.68,-43.79"/>
</g>
<!-- RefFile* -->
<g id="node3" class="node">
<title>RefFile*</title>
<ellipse fill="gray" stroke="black" cx="99" cy="-18" rx="27.25" ry="18"/>
<text text-anchor="middle" x="99" y="-14.7" font-family="Times,serif" font-size="9.00">RefFile*</text>
</g>
<!-- Parallel&#45;&gt;RefFile* -->
<g id="edge2" class="edge">
<title>Parallel&#45;&gt;RefFile*</title>
<path fill="none" stroke="black" d="M71.35,-72.76C75.58,-64.55 80.81,-54.37 85.58,-45.09"/>
<polygon fill="black" stroke="black" points="88.54,-46.99 90,-36.49 82.32,-43.79 88.54,-46.99"/>
</g>
</g>
</svg>
